<?xml version="1.0" encoding="UTF-8"?>
<svg version="1.1" xmlns="http://www.w3.org/2000/svg" width="60" height="60">
<path d="M0 0 C2.64 0 5.28 0 8 0 C8.94401042 1.79036458 9.88802083 3.58072917 10.83203125 5.37109375 C11.99019799 7.32267987 11.99019799 7.32267987 15 8 C15 5.36 15 2.72 15 0 C16.98 0 18.96 0 21 0 C21 3.3 21 6.6 21 10 C21.721875 10.2475 22.44375 10.495 23.1875 10.75 C26.29567538 12.13141128 28.52723148 13.66853254 31 16 C31 16.99 31 17.98 31 19 C31.99 19 32.98 19 34 19 C33.65120368 22.25543229 32.97866739 23.01873107 30.4375 25.25 C29.633125 25.8275 28.82875 26.405 28 27 C27.34 26.01 26.68 25.02 26 24 C26.66 23.34 27.32 22.68 28 22 C27.34 21.67 26.68 21.34 26 21 C26 19.68 26 18.36 26 17 C24.68 16.34 23.36 15.68 22 15 C21.67 17.31 21.34 19.62 21 22 C18.36 22 15.72 22 13 22 C11.35 19.03 9.7 16.06 8 13 C7.67 15.97 7.34 18.94 7 22 C4.69 22 2.38 22 0 22 C-0.33 20.02 -0.66 18.04 -1 16 C-1.4125 16.515625 -1.825 17.03125 -2.25 17.5625 C-2.8275 18.036875 -3.405 18.51125 -4 19 C-6.1875 18.6875 -6.1875 18.6875 -8 18 C-6.61122646 14.64379729 -5.08322035 12.92701272 -2 11 C-1.34 11 -0.68 11 0 11 C0 7.37 0 3.74 0 0 Z " fill="#FF9900" transform="translate(20,20)"/>
<path d="M0 0 C9.10714286 -0.26785714 9.10714286 -0.26785714 13 2 C13 4.64 13 7.28 13 10 C10.36 10 7.72 10 5 10 C3.35 6.7 1.7 3.4 0 0 Z " fill="#0066CC" transform="translate(28,32)"/>
<path d="M0 0 C2.64 0 5.28 0 8 0 C9.32 2.64 10.64 5.28 12 8 C8.04 8.66 4.08 9.32 0 10 C0 6.7 0 3.4 0 0 Z " fill="#0066CC" transform="translate(20,20)"/>
<path d="M0 0 C0 3.3 0 6.6 0 10 C-2.31 10 -4.62 10 -7 10 C-7 7.69 -7 5.38 -7 3 C-1.125 0 -1.125 0 0 0 Z " fill="#0066CC" transform="translate(27,32)"/>
<path d="M0 0 C1.98 0 3.96 0 6 0 C6 2.97 6 5.94 6 9 C3.03 8.505 3.03 8.505 0 8 C0 5.36 0 2.72 0 0 Z " fill="#0066CC" transform="translate(35,20)"/>
</svg>
